<svg width="49" height="49" viewBox="0 0 49 49" fill="none" xmlns="http://www.w3.org/2000/svg">
<rect x="0.5" y="0.5" width="48" height="48" rx="7.5" fill="#F9F9FD"/>
<rect x="0.5" y="0.5" width="48" height="48" rx="7.5" stroke="#25991C"/>
<path d="M14.3414 31.2961C14.0121 31.2961 13.7388 31.1831 13.5214 30.9572C13.304 30.7313 13.1953 30.4514 13.1953 30.1175V29.2617C13.1953 27.8223 13.9333 26.6616 15.4091 25.7796C16.885 24.8977 18.8184 24.4567 21.2094 24.4567C23.6227 24.4567 25.5635 24.8977 27.0319 25.7796C28.5003 26.6616 29.2345 27.8223 29.2345 29.2617V30.1175C29.2345 30.4514 29.1252 30.7313 28.9066 30.9572C28.6881 31.1831 28.4173 31.2961 28.0942 31.2961H14.3414ZM31.702 29.0356C31.9972 27.5084 30.7508 25.7777 29.9991 24.2584C30.2477 24.2116 30.5053 24.1806 30.7718 24.1654C31.0383 24.1503 31.3148 24.1427 31.6013 24.1427C33.1842 24.1427 34.4613 24.4419 35.4326 25.0402C36.4039 25.6386 36.8896 26.4191 36.8896 27.3818V27.915C36.8896 28.2262 36.7841 28.4908 36.5733 28.7087C36.3624 28.9266 36.1064 29.0356 35.8053 29.0356H31.702ZM21.2149 26.35C19.4066 26.35 17.9332 26.6184 16.7947 27.1552C15.6563 27.692 15.0765 28.369 15.0553 29.1863V29.4027H27.3838V29.1612C27.3514 28.362 26.7673 27.6936 25.6313 27.1562C24.4954 26.6188 23.0232 26.35 21.2149 26.35ZM30.5028 21.7325C29.861 21.7325 29.3147 21.4976 28.8639 21.0279C28.4131 20.5582 28.1877 19.9935 28.1877 19.3338C28.1877 18.6742 28.4149 18.1105 28.8694 17.6428C29.3239 17.175 29.8703 16.9411 30.5086 16.9411C31.1503 16.9411 31.6943 17.176 32.1404 17.6457C32.5866 18.1155 32.8096 18.6802 32.8096 19.3398C32.8096 19.9995 32.5856 20.5631 32.1375 21.0309C31.6894 21.4986 31.1445 21.7325 30.5028 21.7325ZM21.2149 22.1962C20.1634 22.1962 19.2696 21.8158 18.5335 21.0551C17.7975 20.2944 17.4295 19.3706 17.4295 18.2839C17.4295 17.1971 17.7975 16.2734 18.5335 15.5127C19.2696 14.7519 20.1634 14.3716 21.2149 14.3716C22.2664 14.3716 23.1602 14.7519 23.8963 15.5127C24.6323 16.2734 25.0003 17.1971 25.0003 18.2839C25.0003 19.3706 24.6323 20.2944 23.8963 21.0551C23.1602 21.8158 22.2664 22.1962 21.2149 22.1962ZM21.2173 16.2649C20.6586 16.2649 20.193 16.4566 19.8203 16.84C19.4477 17.2235 19.2614 17.7039 19.2614 18.2814C19.2614 18.8588 19.4469 19.3401 19.8179 19.7252C20.1889 20.1103 20.6537 20.3029 21.2125 20.3029C21.7712 20.3029 22.2368 20.1112 22.6095 19.7278C22.9821 19.3443 23.1684 18.8639 23.1684 18.2864C23.1684 17.709 22.9829 17.2277 22.6119 16.8426C22.2409 16.4575 21.7761 16.2649 21.2173 16.2649Z" fill="#25991C"/>
<path d="M19.8036 38.6415C19.4817 38.6415 19.2122 38.5324 18.9952 38.3143C18.7781 38.0962 18.6696 37.8254 18.6696 37.502C18.6696 37.1785 18.7781 36.9096 18.9952 36.6951C19.2122 36.4806 19.4817 36.3734 19.8036 36.3734H22.4028L22.4356 35.1322H10.3773C9.60389 35.1322 8.93994 34.8549 8.38545 34.3004C7.83096 33.7459 7.55371 33.082 7.55371 32.3085V12.682C7.55371 11.9086 7.83096 11.2447 8.38545 10.6902C8.93994 10.1357 9.60389 9.8584 10.3773 9.8584H39.0302C39.8096 9.8584 40.4751 10.1357 41.0266 10.6902C41.5781 11.2447 41.8538 11.9086 41.8538 12.682V32.3085C41.8538 33.082 41.5781 33.7459 41.0266 34.3004C40.4751 34.8549 39.8096 35.1322 39.0302 35.1322H26.9719L26.939 36.3734H29.5497C29.8716 36.3734 30.1411 36.4825 30.3582 36.7006C30.5753 36.9187 30.6838 37.1895 30.6838 37.5129C30.6838 37.8364 30.5753 38.1053 30.3582 38.3198C30.1411 38.5343 29.8716 38.6415 29.5497 38.6415H19.8036ZM10.3773 32.8641H39.0302C39.1922 32.8641 39.3253 32.812 39.4295 32.7078C39.5336 32.6037 39.5857 32.4706 39.5857 32.3085V12.682C39.5857 12.52 39.5336 12.3869 39.4295 12.2827C39.3253 12.1786 39.1922 12.1265 39.0302 12.1265H10.3773C10.223 12.1265 10.0919 12.1786 9.98384 12.2827C9.87582 12.3869 9.82182 12.52 9.82182 12.682V32.3085C9.82182 32.4706 9.87582 32.6037 9.98384 32.7078C10.0919 32.812 10.223 32.8641 10.3773 32.8641Z" fill="#25991C"/>
</svg>
