<svg width="51" height="49" viewBox="0 0 51 49" fill="none" xmlns="http://www.w3.org/2000/svg">
<rect x="0.5" y="0.5" width="50" height="48" rx="7.5" fill="#F9F9FD"/>
<rect x="0.5" y="0.5" width="50" height="48" rx="7.5" stroke="#25991C"/>
<path d="M18.356 30.2295C18.015 30.2295 17.7319 30.123 17.5067 29.9099C17.2815 29.6969 17.1689 29.433 17.1689 29.118V28.3109C17.1689 26.9535 17.9333 25.8589 19.4619 25.0271C20.9905 24.1954 22.993 23.7795 25.4694 23.7795C27.969 23.7795 29.9792 24.1954 31.5 25.0271C33.0209 25.8589 33.7813 26.9535 33.7813 28.3109V29.118C33.7813 29.433 33.6682 29.6969 33.4418 29.9099C33.2154 30.123 32.9349 30.2295 32.6003 30.2295H18.356ZM25.4751 25.5651C23.6022 25.5651 22.0761 25.8182 20.897 26.3244C19.7179 26.8306 19.1173 27.4691 19.0954 28.2399V28.4439H31.8646V28.2162C31.831 27.4625 31.226 26.8322 30.0494 26.3253C28.8729 25.8185 27.3481 25.5651 25.4751 25.5651ZM25.4751 21.6477C24.386 21.6477 23.4603 21.289 22.698 20.5716C21.9356 19.8542 21.5544 18.983 21.5544 17.9581C21.5544 16.9332 21.9356 16.0621 22.698 15.3447C23.4603 14.6273 24.386 14.2686 25.4751 14.2686C26.5642 14.2686 27.49 14.6273 28.2523 15.3447C29.0147 16.0621 29.3959 16.9332 29.3959 17.9581C29.3959 18.983 29.0147 19.8542 28.2523 20.5716C27.49 21.289 26.5642 21.6477 25.4751 21.6477ZM25.4777 16.0541C24.899 16.0541 24.4167 16.2349 24.0307 16.5965C23.6448 16.9581 23.4518 17.4112 23.4518 17.9557C23.4518 18.5003 23.6439 18.9542 24.0282 19.3174C24.4125 19.6806 24.8939 19.8622 25.4726 19.8622C26.0513 19.8622 26.5336 19.6814 26.9196 19.3198C27.3055 18.9582 27.4985 18.5051 27.4985 17.9605C27.4985 17.416 27.3063 16.9621 26.9221 16.5989C26.5378 16.2357 26.0564 16.0541 25.4777 16.0541Z" fill="#25991C"/>
<path d="M20.5587 38.7918C20.2202 38.7918 19.9367 38.6816 19.7085 38.4613C19.4802 38.2408 19.366 37.9672 19.366 37.6404C19.366 37.3136 19.4802 37.0418 19.7085 36.8251C19.9367 36.6084 20.2202 36.5001 20.5587 36.5001H23.2921L23.3267 35.2459H10.6453C9.8319 35.2459 9.13364 34.9658 8.5505 34.4054C7.96735 33.8452 7.67578 33.1743 7.67578 32.3928V12.5616C7.67578 11.7801 7.96735 11.1092 8.5505 10.549C9.13364 9.98865 9.8319 9.7085 10.6453 9.7085H40.7787C41.5984 9.7085 42.2983 9.98865 42.8783 10.549C43.4583 11.1092 43.7483 11.7801 43.7483 12.5616V32.3928C43.7483 33.1743 43.4583 33.8452 42.8783 34.4054C42.2983 34.9658 41.5984 35.2459 40.7787 35.2459H28.0973L28.0628 36.5001H30.8084C31.1469 36.5001 31.4303 36.6103 31.6586 36.8307C31.8869 37.0511 32.0011 37.3247 32.0011 37.6515C32.0011 37.9783 31.8869 38.2501 31.6586 38.4668C31.4303 38.6835 31.1469 38.7918 30.8084 38.7918H20.5587ZM10.6453 32.9541H40.7787C40.9491 32.9541 41.0891 32.9015 41.1987 32.7963C41.3082 32.691 41.363 32.5565 41.363 32.3928V12.5616C41.363 12.3979 41.3082 12.2634 41.1987 12.1581C41.0891 12.0529 40.9491 12.0003 40.7787 12.0003H10.6453C10.483 12.0003 10.3451 12.0529 10.2315 12.1581C10.1179 12.2634 10.0611 12.3979 10.0611 12.5616V32.3928C10.0611 32.5565 10.1179 32.691 10.2315 32.7963C10.3451 32.9015 10.483 32.9541 10.6453 32.9541Z" fill="#25991C"/>
</svg>
