<svg width="49" height="49" viewBox="0 0 49 49" fill="none" xmlns="http://www.w3.org/2000/svg">
<rect x="0.5" y="0.5" width="48" height="48" rx="7.5" fill="#F9F9FD"/>
<rect x="0.5" y="0.5" width="48" height="48" rx="7.5" stroke="#25991C"/>
<path d="M28.3646 14.0186C27.6459 14.0186 27.0332 13.7659 26.5265 13.2605C26.0198 12.7551 25.7665 12.1431 25.7665 11.4243C25.7665 10.7056 26.0192 10.0929 26.5246 9.58624C27.03 9.07953 27.642 8.82617 28.3607 8.82617C29.0794 8.82617 29.6921 9.07888 30.1988 9.58428C30.7056 10.0897 30.9589 10.7017 30.9589 11.4204C30.9589 12.1391 30.7062 12.7518 30.2008 13.2586C29.6954 13.7653 29.0833 14.0186 28.3646 14.0186ZM29.1898 39.9187C28.9256 39.9187 28.706 39.8301 28.5309 39.653C28.3558 39.4758 28.2683 39.2558 28.2683 38.9928V31.3316L24.1395 27.4684L23.0785 32.2443C22.9406 32.8521 22.6049 33.3256 22.0714 33.6648C21.5379 34.0039 20.9626 34.1102 20.3453 33.9836L14.1844 32.7337C13.9478 32.6868 13.7608 32.5594 13.6234 32.3513C13.486 32.1433 13.4438 31.9108 13.4967 31.6538C13.553 31.4109 13.6828 31.2223 13.8861 31.0881C14.0894 30.9538 14.3098 30.9132 14.5472 30.966L20.4209 32.1565C20.5469 32.1848 20.6611 32.162 20.7634 32.088C20.8658 32.014 20.9311 31.914 20.9595 31.788L23.5859 18.4137L19.8673 20.0586C19.7822 20.0964 19.7137 20.1507 19.6617 20.2216C19.6098 20.2924 19.5838 20.3751 19.5838 20.4696V24.0899C19.5838 24.3529 19.4948 24.5729 19.3169 24.7501C19.1389 24.9272 18.9178 25.0158 18.6536 25.0158C18.3895 25.0158 18.1698 24.9272 17.9948 24.7501C17.8197 24.5729 17.7321 24.3529 17.7321 24.0899V20.4526C17.7321 19.9954 17.8611 19.5716 18.119 19.181C18.377 18.7904 18.7207 18.5098 19.1502 18.3391L23.6918 16.426C24.3852 16.1243 24.8944 15.9295 25.2194 15.8416C25.5444 15.7538 25.852 15.7098 26.1421 15.7098C26.582 15.7098 26.9805 15.8142 27.3376 16.023C27.6947 16.2318 27.9942 16.5255 28.236 16.904L29.748 19.3227C30.3153 20.2271 31.0702 21.0253 32.0128 21.7172C32.9554 22.4091 34.0361 22.858 35.2548 23.064C35.4923 23.0973 35.6926 23.2047 35.8557 23.3861C36.0188 23.5674 36.1004 23.7684 36.1004 23.9889C36.1004 24.2681 36.0004 24.5019 35.8004 24.6905C35.6005 24.879 35.3676 24.9541 35.1018 24.9157C33.7917 24.7355 32.5557 24.2677 31.394 23.5122C30.2322 22.7567 29.1786 21.6741 28.2332 20.2645L26.8623 26.484L29.3981 28.8686C29.63 29.1108 29.8083 29.3737 29.9329 29.6573C30.0576 29.9409 30.12 30.2364 30.12 30.5437V38.9928C30.12 39.2558 30.0294 39.4758 29.8483 39.653C29.6671 39.8301 29.4476 39.9187 29.1898 39.9187Z" fill="#25991C"/>
</svg>
