<svg width="50" height="49" viewBox="0 0 50 49" fill="none" xmlns="http://www.w3.org/2000/svg">
<rect x="0.5" y="0.5" width="49" height="48" rx="7.5" fill="#F9F9FD"/>
<rect x="0.5" y="0.5" width="49" height="48" rx="7.5" stroke="#25991C"/>
<path d="M9.94537 35.7293C9.48212 35.7293 9.09759 35.5794 8.79178 35.2797C8.48593 34.98 8.33301 34.6085 8.33301 34.1654V33.0297C8.33301 31.1197 9.37115 29.5795 11.4474 28.4092C13.5237 27.2389 16.2436 26.6537 19.6072 26.6537C23.0023 26.6537 25.7327 27.2389 27.7985 28.4092C29.8642 29.5795 30.8971 31.1197 30.8971 33.0297V34.1654C30.8971 34.6085 30.7433 34.98 30.4358 35.2797C30.1284 35.5794 29.7474 35.7293 29.2929 35.7293H9.94537ZM34.3685 32.7297C34.7837 30.7033 33.0303 28.4066 31.9727 26.3905C32.3225 26.3284 32.6849 26.2873 33.0598 26.2672C33.4348 26.2471 33.8237 26.2371 34.2267 26.2371C36.4536 26.2371 38.2503 26.6341 39.6167 27.428C40.9831 28.222 41.6663 29.2577 41.6663 30.5352V31.2428C41.6663 31.6557 41.518 32.0068 41.2214 32.296C40.9247 32.5851 40.5646 32.7297 40.141 32.7297H34.3685ZM19.615 29.1661C17.0711 29.1661 14.9983 29.5222 13.3967 30.2346C11.7951 30.9469 10.9794 31.8453 10.9496 32.9297V33.2169H28.2936V32.8964C28.248 31.8359 27.4262 30.949 25.8281 30.2359C24.23 29.5227 22.159 29.1661 19.615 29.1661ZM32.6813 23.0388C31.7785 23.0388 31.01 22.7271 30.3757 22.1038C29.7415 21.4804 29.4244 20.7311 29.4244 19.8558C29.4244 18.9805 29.7441 18.2325 30.3835 17.6118C31.0229 16.9911 31.7916 16.6807 32.6895 16.6807C33.5923 16.6807 34.3575 16.9924 34.9852 17.6157C35.6128 18.2391 35.9266 18.9884 35.9266 19.8637C35.9266 20.739 35.6115 21.487 34.9811 22.1077C34.3507 22.7284 33.5841 23.0388 32.6813 23.0388ZM19.615 23.6541C18.1358 23.6541 16.8784 23.1493 15.8429 22.1399C14.8074 21.1304 14.2896 19.9046 14.2896 18.4625C14.2896 17.0204 14.8074 15.7947 15.8429 14.7852C16.8784 13.7757 18.1358 13.271 19.615 13.271C21.0943 13.271 22.3517 13.7757 23.3872 14.7852C24.4227 15.7947 24.9404 17.0204 24.9404 18.4625C24.9404 19.9046 24.4227 21.1304 23.3872 22.1399C22.3517 23.1493 21.0943 23.6541 19.615 23.6541ZM19.6185 15.7834C18.8325 15.7834 18.1774 16.0378 17.6531 16.5466C17.1289 17.0554 16.8668 17.6929 16.8668 18.4592C16.8668 19.2254 17.1278 19.8641 17.6497 20.3751C18.1716 20.8862 18.8256 21.1417 19.6116 21.1417C20.3976 21.1417 21.0527 20.8873 21.5769 20.3785C22.1012 19.8697 22.3633 19.2322 22.3633 18.4659C22.3633 17.6996 22.1023 17.061 21.5804 16.55C21.0585 16.0389 20.4045 15.7834 19.6185 15.7834Z" fill="#25991C"/>
</svg>
