<svg width="49" height="49" viewBox="0 0 49 49" fill="none" xmlns="http://www.w3.org/2000/svg">
<rect x="0.5" y="0.5" width="48" height="48" rx="7.5" fill="#F9F9FD"/>
<rect x="0.5" y="0.5" width="48" height="48" rx="7.5" stroke="#25991C"/>
<path d="M14.3021 35.1061H20.3643V25.2014H28.6356V35.1061H34.6978V19.8093L24.5 12.1242L14.3021 19.8058V35.1061ZM14.3021 37.1582C13.7435 37.1582 13.2619 36.9558 12.8572 36.551C12.4524 36.1463 12.25 35.6647 12.25 35.1061V19.8093C12.25 19.4863 12.3207 19.1803 12.4621 18.8914C12.6035 18.6024 12.8068 18.3639 13.0719 18.176L23.2698 10.491C23.4608 10.3548 23.6588 10.2536 23.8638 10.1874C24.0688 10.121 24.2824 10.0879 24.5045 10.0879C24.7266 10.0879 24.9392 10.121 25.1423 10.1874C25.3454 10.2536 25.5414 10.3548 25.7301 10.491L35.928 18.176C36.1931 18.3639 36.3964 18.6024 36.5378 18.8914C36.6792 19.1803 36.7499 19.4863 36.7499 19.8093V35.1061C36.7499 35.6647 36.5475 36.1463 36.1428 36.551C35.738 36.9558 35.2564 37.1582 34.6978 37.1582H26.5835V27.2535H22.4164V37.1582H14.3021Z" fill="#25991C"/>
</svg>
