<svg width="50" height="50" viewBox="0 0 50 50" fill="none" xmlns="http://www.w3.org/2000/svg">
<rect x="0.5" y="0.5" width="49" height="49" rx="7.5" fill="#F9F9FD"/>
<rect x="0.5" y="0.5" width="49" height="49" rx="7.5" stroke="#2F73C2"/>
<path d="M24.282 37.7116C24.0671 37.7116 23.8538 37.6852 23.6422 37.6325C23.4305 37.5798 23.2225 37.495 23.0181 37.3782L14.5886 32.7896C14.1798 32.5574 13.8538 32.2398 13.6105 31.8368C13.3673 31.4338 13.2457 30.9818 13.2457 30.4808V23.0129L9.79596 21.1284C9.57351 21.0045 9.40875 20.8441 9.30167 20.6471C9.19458 20.4501 9.13569 20.2342 9.125 19.9993C9.125 19.7608 9.18122 19.5443 9.29367 19.3496C9.40608 19.155 9.57351 18.9958 9.79596 18.8719L23.0175 11.6422C23.2183 11.535 23.4244 11.4529 23.6356 11.3957C23.8468 11.3386 24.0623 11.3101 24.282 11.3101C24.5016 11.3101 24.717 11.3393 24.9281 11.3976C25.1392 11.4561 25.3415 11.5401 25.5351 11.6498L40.2135 19.6187C40.4328 19.7505 40.6023 19.9181 40.722 20.1216C40.8416 20.325 40.9015 20.5445 40.9015 20.7801V30.8783C40.9015 31.1749 40.8006 31.4236 40.5989 31.6243C40.3971 31.8249 40.1471 31.9253 39.8489 31.9253C39.5507 31.9253 39.3025 31.8249 39.1045 31.6243C38.9065 31.4236 38.8075 31.1749 38.8075 30.8783V21.1988L35.3182 23.0129V30.4808C35.3182 30.9818 35.1966 31.4338 34.9534 31.8368C34.7101 32.2398 34.3805 32.5574 33.9646 32.7896L25.5351 37.3782C25.3378 37.495 25.1334 37.5798 24.9218 37.6325C24.7101 37.6852 24.4968 37.7116 24.282 37.7116ZM24.0896 26.5557C24.1573 26.5984 24.2223 26.6198 24.2846 26.6198C24.347 26.6198 24.4155 26.5984 24.4903 26.5557L36.5117 20.0001L24.4903 13.5226C24.4155 13.4799 24.347 13.4585 24.2846 13.4585C24.2223 13.4585 24.1573 13.4799 24.0896 13.5226L12.0864 20.0001L24.0896 26.5557ZM24.0736 35.5866C24.1412 35.6294 24.2089 35.6507 24.2766 35.6507C24.3443 35.6507 24.4155 35.6294 24.4903 35.5866L32.9839 30.9381C33.0693 30.8918 33.1308 30.8322 33.1682 30.7591C33.2056 30.6861 33.2243 30.5962 33.2243 30.4894V24.2223L25.5437 28.3836C25.345 28.4933 25.1416 28.5718 24.9337 28.6192C24.7257 28.6665 24.5085 28.6902 24.282 28.6902C24.0555 28.6902 23.8411 28.6665 23.6388 28.6192C23.4365 28.5718 23.236 28.4933 23.0373 28.3836L15.3396 24.1774V30.4894C15.3396 30.582 15.3583 30.6683 15.3958 30.7485C15.4331 30.8286 15.4946 30.8918 15.58 30.9381L24.0736 35.5866Z" fill="#2F73C2"/>
</svg>
