<svg width="28" height="28" viewBox="0 0 28 28" fill="none" xmlns="http://www.w3.org/2000/svg">
<path d="M14.0001 26.4446C20.873 26.4446 26.4446 20.873 26.4446 14.0001C26.4446 7.12723 20.873 1.55566 14.0001 1.55566C7.12723 1.55566 1.55566 7.12723 1.55566 14.0001C1.55566 20.873 7.12723 26.4446 14.0001 26.4446Z" fill="#DC5C5C"/>
<path d="M8.81535 19.2891C8.53535 19.2891 8.29251 19.1862 8.08683 18.9805C7.88116 18.7749 7.77832 18.532 7.77832 18.252V10.3705C7.77832 10.0905 7.88116 9.84769 8.08683 9.64201C8.29251 9.43633 8.53535 9.3335 8.81535 9.3335H19.1857C19.4657 9.3335 19.7086 9.43633 19.9143 9.64201C20.1199 9.84769 20.2228 10.0905 20.2228 10.3705V18.252C20.2228 18.532 20.1199 18.7749 19.9143 18.9805C19.7086 19.1862 19.4657 19.2891 19.1857 19.2891H8.81535ZM14.0005 14.7053L19.1857 11.3557V10.3705L14.0005 13.6683L8.81535 10.3705V11.3557L14.0005 14.7053Z" fill="white"/>
</svg>
