<svg width="30" height="30" viewBox="0 0 30 30" fill="none" xmlns="http://www.w3.org/2000/svg">
<path d="M11.7429 16.2871C11.5212 16.7258 11.2901 17.2022 11.0448 17.6691C10.8797 17.9851 10.6061 18.1455 10.2429 18.1314C9.90335 18.1172 9.65808 17.9474 9.51186 17.6455C9.38451 17.3908 9.40337 17.1267 9.53073 16.872C9.73354 16.4664 9.93636 16.0607 10.1392 15.6551C10.1675 15.5938 10.1958 15.5372 10.2194 15.49C9.67694 15.0608 9.14867 14.6363 8.59682 14.1976C8.57795 14.2165 8.53078 14.2495 8.48833 14.2919C8.18174 14.5985 7.86101 14.8957 7.56857 15.2164C7.1252 15.7117 6.54504 15.6079 6.25261 15.3202C5.9696 15.0372 5.83282 14.4759 6.34222 14.0089C6.72428 13.6552 7.08275 13.2731 7.45065 12.9052C7.46009 12.8958 7.4648 12.8816 7.47424 12.8675C7.25255 12.5137 7.03086 12.16 6.8139 11.7968C6.71013 11.627 6.62051 11.4478 6.53089 11.2638C6.30921 10.8204 6.46958 10.3158 6.89408 10.0988C7.3233 9.8771 7.82799 10.0375 8.05439 10.4903C8.56851 11.5091 9.21942 12.4288 10.0779 13.1882C11.6815 14.6127 13.5447 15.3155 15.6955 15.1032C17.5869 14.9193 19.1528 14.0467 20.4452 12.6741C21.0442 12.0374 21.5253 11.3157 21.9168 10.5327C22.1291 10.1082 22.5347 9.91955 22.9451 10.0375C23.4686 10.1931 23.728 10.7638 23.4639 11.2591C23.2092 11.7402 22.9121 12.2072 22.6338 12.6741C22.596 12.7354 22.5536 12.7967 22.5064 12.8675C22.9121 13.2731 23.313 13.6741 23.7186 14.075C23.945 14.2967 24.0488 14.5655 23.978 14.8768C23.9073 15.2023 23.7092 15.4287 23.3884 15.523C23.0677 15.6173 22.7753 15.5513 22.5347 15.3108C22.1527 14.9334 21.78 14.5514 21.4121 14.1835C20.8603 14.6221 20.3226 15.0466 19.7707 15.49C19.9877 15.9239 20.2235 16.372 20.4358 16.8343C20.5065 16.9946 20.5584 17.1786 20.5537 17.3531C20.5348 17.7446 20.2424 18.0559 19.8792 18.1219C19.4972 18.1927 19.134 18.0276 18.95 17.6738C18.7047 17.2069 18.4736 16.7305 18.2519 16.2871C17.4595 16.4805 16.6766 16.6692 15.8558 16.872C15.8558 16.8861 15.8511 16.9569 15.8511 17.0276C15.8511 17.5512 15.8558 18.07 15.8511 18.5936C15.8417 19.0134 15.5304 19.3577 15.1342 19.4096C14.6955 19.4662 14.3088 19.2256 14.1861 18.8106C14.1531 18.6974 14.1484 18.5747 14.1484 18.4521C14.1484 17.9097 14.1484 17.372 14.1484 16.8673C13.3418 16.6739 12.5589 16.4805 11.7476 16.2824L11.7429 16.2871Z" fill="#9296AD"/>
</svg>
