<svg width="13" height="20" viewBox="0 0 13 20" fill="none" xmlns="http://www.w3.org/2000/svg">
<g clip-path="url(#clip0_2802_57561)">
<path d="M10.334 7.28645C10.334 8.40687 10.3474 9.5273 10.3309 10.6477C10.3069 12.2812 9.57098 13.492 8.09121 14.2079C6.00226 15.2187 3.38617 13.9929 2.81821 11.7446C2.72989 11.3945 2.67651 11.026 2.67455 10.6657C2.66159 8.4057 2.66395 6.14527 2.66944 3.88484C2.67337 2.17464 3.64523 0.74014 5.25453 0.210279C7.40903 -0.499335 9.58394 0.645368 10.1829 2.80789C10.2822 3.167 10.3215 3.55157 10.3274 3.92557C10.3458 5.0456 10.334 6.16603 10.334 7.28645ZM3.87406 7.25747C3.87406 7.25747 3.87132 7.25747 3.87014 7.25747C3.87014 8.3775 3.86818 9.49714 3.8721 10.6172C3.87289 10.8181 3.88505 11.0209 3.91646 11.2191C4.13234 12.5788 5.53949 13.5747 6.89719 13.3338C8.23487 13.0969 9.12588 12.056 9.12941 10.7006C9.13569 8.4151 9.13373 6.13 9.12745 3.84451C9.12666 3.6064 9.09722 3.36242 9.03952 3.13137C8.72512 1.8774 7.48596 1.04991 6.17105 1.20264C4.91304 1.34872 3.89879 2.43663 3.87799 3.70235C3.85876 4.887 3.87367 6.07243 3.87367 7.25708L3.87406 7.25747Z" fill="#DC5C5C"/>
<path d="M5.89644 18.8056V17.214C5.59107 17.1561 5.28766 17.1161 4.99406 17.0394C2.60052 16.4116 1.03165 14.9086 0.267429 12.5678C0.0805937 11.9953 0.0107265 11.3993 0.000128718 10.7977C-0.00615147 10.4398 0.217973 10.1747 0.541795 10.1496C0.885636 10.1234 1.13998 10.3458 1.19023 10.7092C1.25734 11.1976 1.27972 11.6985 1.40846 12.1704C1.80608 13.6264 2.69355 14.73 4.03476 15.4137C5.86661 16.3474 7.69493 16.2589 9.42277 15.1431C10.7448 14.2894 11.5109 13.0417 11.7464 11.4827C11.7881 11.207 11.7869 10.9246 11.8226 10.6477C11.8599 10.3572 12.0989 10.1555 12.3851 10.148C12.7254 10.139 13.0033 10.3963 13.0001 10.7437C12.9915 11.8089 12.7556 12.8224 12.2469 13.7619C11.3912 15.3425 10.0979 16.4061 8.38105 16.9426C7.97323 17.0699 7.5446 17.131 7.10852 17.2262V18.7954C7.18506 18.7989 7.25454 18.8048 7.3244 18.8048C7.94457 18.8056 8.56474 18.8032 9.18452 18.8071C9.3007 18.8079 9.42238 18.8157 9.53111 18.8518C9.79134 18.9383 9.94442 19.2105 9.90831 19.4882C9.87416 19.749 9.6571 19.9608 9.38666 19.9945C9.34152 20 9.2956 19.9996 9.24967 19.9996C7.41547 19.9996 5.58165 20.0008 3.74744 19.9992C3.32235 19.9992 3.05152 19.7169 3.09312 19.328C3.12688 19.0123 3.38083 18.8095 3.76196 18.8067C4.39509 18.8024 5.02821 18.8056 5.66133 18.8056C5.73237 18.8056 5.80303 18.8056 5.89644 18.8056Z" fill="#DC5C5C"/>
<path d="M5 3C5 3.27614 5.22386 3.5 5.5 3.5C5.77614 3.5 6 3.27614 6 3L5 3ZM5 1L5 3L6 3L6 1L5 1Z" fill="#DC5C5C"/>
<path d="M7 3C7 3.27614 7.22386 3.5 7.5 3.5C7.77614 3.5 8 3.27614 8 3L7 3ZM7 1L7 3L8 3L8 1L7 1Z" fill="#DC5C5C"/>
<path d="M8 5.5C7.72386 5.5 7.5 5.72386 7.5 6C7.5 6.27614 7.72386 6.5 8 6.5L8 5.5ZM10 5.5L8 5.5L8 6.5L10 6.5L10 5.5Z" fill="#DC5C5C"/>
<path d="M5 6.5C5.27614 6.5 5.5 6.27614 5.5 6C5.5 5.72386 5.27614 5.5 5 5.5V6.5ZM5 5.5H3V6.5H5V5.5Z" fill="#DC5C5C"/>
<path d="M5 10.5C5.27614 10.5 5.5 10.2761 5.5 10C5.5 9.72386 5.27614 9.5 5 9.5V10.5ZM5 9.5H3V10.5H5V9.5Z" fill="#DC5C5C"/>
<path d="M8 9.5C7.72386 9.5 7.5 9.72386 7.5 10C7.5 10.2761 7.72386 10.5 8 10.5V9.5ZM10 9.5H8V10.5H10V9.5Z" fill="#DC5C5C"/>
<path d="M8 7.5C7.72386 7.5 7.5 7.72386 7.5 8C7.5 8.27614 7.72386 8.5 8 8.5L8 7.5ZM10 7.5L8 7.5L8 8.5L10 8.5L10 7.5Z" fill="#DC5C5C"/>
<path d="M5 8.5C5.27614 8.5 5.5 8.27614 5.5 8C5.5 7.72386 5.27614 7.5 5 7.5V8.5ZM5 7.5H3V8.5H5V7.5Z" fill="#DC5C5C"/>
</g>
<defs>
<clipPath id="clip0_2802_57561">
<rect width="13" height="20" fill="white"/>
</clipPath>
</defs>
</svg>
