<svg width="28" height="28" viewBox="0 0 28 28" fill="none" xmlns="http://www.w3.org/2000/svg">
<path d="M14.0001 26.4446C20.873 26.4446 26.4446 20.873 26.4446 14.0001C26.4446 7.12723 20.873 1.55566 14.0001 1.55566C7.12723 1.55566 1.55566 7.12723 1.55566 14.0001C1.55566 20.873 7.12723 26.4446 14.0001 26.4446Z" fill="#25991C"/>
<path d="M18.7791 19.4446C17.5256 19.4446 16.288 19.1463 15.0663 18.5497C13.8447 17.9532 12.7524 17.1735 11.7896 16.2107C10.8267 15.2478 10.047 14.1555 9.45047 12.9339C8.85393 11.7123 8.55566 10.4747 8.55566 9.2211C8.55566 9.03289 8.61952 8.87494 8.74723 8.74723C8.87494 8.61952 9.03289 8.55566 9.2211 8.55566H11.4493C11.5904 8.55566 11.7148 8.60271 11.8223 8.69681C11.9299 8.79092 11.9971 8.91527 12.024 9.06986L12.4273 11.046C12.4474 11.1871 12.4449 11.3157 12.4197 11.4316C12.3945 11.5476 12.3399 11.6476 12.2559 11.7316L10.7637 13.2439C11.2812 14.111 11.8795 14.8823 12.5583 15.5578C13.2372 16.2333 14.0001 16.8097 14.847 17.287L16.2787 15.825C16.3762 15.7208 16.493 15.6461 16.6291 15.6007C16.7652 15.5553 16.9005 15.5461 17.0349 15.5729L18.9304 15.9762C19.0782 16.0065 19.2009 16.0796 19.2984 16.1955C19.3958 16.3115 19.4446 16.4468 19.4446 16.6013V18.7791C19.4446 18.9673 19.3807 19.1253 19.253 19.253C19.1253 19.3807 18.9673 19.4446 18.7791 19.4446Z" fill="white"/>
</svg>
