<svg width="28" height="28" viewBox="0 0 28 28" fill="none" xmlns="http://www.w3.org/2000/svg">
<path d="M14.0001 26.4446C20.873 26.4446 26.4446 20.873 26.4446 14.0001C26.4446 7.12723 20.873 1.55566 14.0001 1.55566C7.12723 1.55566 1.55566 7.12723 1.55566 14.0001C1.55566 20.873 7.12723 26.4446 14.0001 26.4446Z" fill="url(#paint0_linear_352_100291)"/>
<path fill-rule="evenodd" clip-rule="evenodd" d="M7.18883 13.8686C10.8166 12.2881 13.2357 11.2461 14.4461 10.7426C17.9021 9.30515 18.6202 9.05545 19.0883 9.04721C19.1912 9.04539 19.4214 9.07091 19.5705 9.19189C19.6964 9.29405 19.731 9.43205 19.7476 9.5289C19.7642 9.62576 19.7848 9.8464 19.7684 10.0188C19.5811 11.9866 18.7708 16.7618 18.3585 18.9657C18.1841 19.8983 17.8406 20.211 17.5081 20.2416C16.7854 20.3081 16.2366 19.764 15.5367 19.3052C14.4414 18.5872 13.8227 18.1403 12.7595 17.4397C11.5308 16.63 12.3273 16.185 13.0275 15.4577C13.2108 15.2674 16.3949 12.3712 16.4565 12.1085C16.4642 12.0756 16.4714 11.9531 16.3986 11.8884C16.3259 11.8238 16.2185 11.8459 16.141 11.8635C16.0311 11.8884 14.2814 13.0449 10.8918 15.333C10.3952 15.674 9.94533 15.8402 9.54227 15.8315C9.09794 15.8219 8.24323 15.5802 7.60784 15.3737C6.8285 15.1204 6.2091 14.9864 6.26304 14.5562C6.29113 14.3321 6.59973 14.1029 7.18883 13.8686Z" fill="white"/>
<defs>
<linearGradient id="paint0_linear_352_100291" x1="14.0001" y1="1.55566" x2="14.0001" y2="26.26" gradientUnits="userSpaceOnUse">
<stop stop-color="#2AABEE"/>
<stop offset="1" stop-color="#229ED9"/>
</linearGradient>
</defs>
</svg>
