<svg width="28" height="28" viewBox="0 0 28 28" fill="none" xmlns="http://www.w3.org/2000/svg">
<g clip-path="url(#clip0_352_100290)">
<path d="M14.4444 26.8889C21.3173 26.8889 26.8889 21.3173 26.8889 14.4444C26.8889 7.57157 21.3173 2 14.4444 2C7.57157 2 2 7.57157 2 14.4444C2 21.3173 7.57157 26.8889 14.4444 26.8889Z" fill="url(#paint0_linear_352_100290)"/>
<path fill-rule="evenodd" clip-rule="evenodd" d="M17.7234 15.8534C17.5404 15.7619 16.6408 15.3193 16.473 15.2583C16.3053 15.1973 16.1833 15.1667 16.0614 15.3499C15.9394 15.533 15.5887 15.945 15.4819 16.0671C15.3752 16.1892 15.2685 16.2045 15.0855 16.1129C14.9025 16.0213 14.313 15.8281 13.614 15.2049C13.0701 14.7199 12.7029 14.1209 12.5961 13.9377C12.4894 13.7546 12.5847 13.6556 12.6764 13.5644C12.7586 13.4825 12.8593 13.3508 12.9508 13.244C13.0423 13.1371 13.0728 13.0608 13.1338 12.9388C13.1948 12.8167 13.1643 12.7099 13.1185 12.6183C13.0728 12.5267 12.7069 11.6264 12.5544 11.2601C12.4059 10.9035 12.255 10.9517 12.1427 10.9461C12.0361 10.9408 11.914 10.9397 11.792 10.9397C11.67 10.9397 11.4718 10.9855 11.304 11.1686C11.1363 11.3517 10.6636 11.7943 10.6636 12.6946C10.6636 13.595 11.3193 14.4648 11.4108 14.5869C11.5023 14.709 12.7011 16.5566 14.5366 17.3489C14.9732 17.5374 15.314 17.6499 15.5797 17.7343C16.0181 17.8735 16.417 17.8538 16.7323 17.8067C17.0838 17.7542 17.8149 17.3642 17.9673 16.9369C18.1198 16.5096 18.1198 16.1434 18.0741 16.0671C18.0283 15.9908 17.9063 15.945 17.7234 15.8534ZM14.3842 20.4105H14.3818C13.2896 20.4101 12.2183 20.1168 11.2838 19.5624L11.0616 19.4305L8.75789 20.0347L9.37279 17.7893L9.22804 17.5591C8.61877 16.5903 8.29698 15.4706 8.29744 14.3208C8.29877 10.9659 11.0293 8.23648 14.3867 8.23648C16.0124 8.23711 17.5407 8.87087 18.6898 10.021C19.839 11.1711 20.4716 12.6999 20.4709 14.3258C20.4695 17.6809 17.7391 20.4105 14.3842 20.4105ZM19.5649 9.14704C18.1823 7.76327 16.3436 7.00084 14.3846 7.00007C10.3482 7.00007 7.06303 10.284 7.06142 14.3204C7.06089 15.6107 7.39808 16.8702 8.03891 17.9803L7 21.7739L10.8821 20.7559C11.9517 21.3392 13.156 21.6465 14.3817 21.647H14.3846H14.3847C18.4207 21.647 21.7061 18.3627 21.7078 14.3262C21.7085 12.3701 20.9475 10.5308 19.5649 9.14704Z" fill="white"/>
</g>
<defs>
<linearGradient id="paint0_linear_352_100290" x1="1.99997" y1="2" x2="1.99997" y2="26.8889" gradientUnits="userSpaceOnUse">
<stop stop-color="#61FD7D"/>
<stop offset="1" stop-color="#25CF43"/>
</linearGradient>
<clipPath id="clip0_352_100290">
<rect width="28" height="28" fill="white"/>
</clipPath>
</defs>
</svg>
